<?xml version="1.0" encoding="UTF-8"?>
<svg width="20px" height="20px" viewBox="0 0 20 20" version="1.1" xmlns="http://www.w3.org/2000/svg" xmlns:xlink="http://www.w3.org/1999/xlink">
    <!-- Generator: Sketch 59.1 (86144) - https://sketch.com -->
    <title>CDS-Icon/#/noti@1x</title>
    <desc>Created with Sketch.</desc>
    <g id="CDS-Icon/#/noti" stroke="none" stroke-width="1" fill="none" fill-rule="evenodd">
        <path d="M10,14.598 C9.284,14.598 8.7,14.018 8.7,13.299 C8.7,12.582 9.284,12 10,12 C10.717,12 11.3,12.582 11.3,13.299 C11.3,14.018 10.717,14.598 10,14.598 L10,14.598 Z M8.999,6.49061284 C8.999,5.94351248 9.44286482,5.5 9.999,5.5 L9.999,5.5 C10.5512847,5.5 10.999,5.95090002 10.999,6.49061284 L10.999,10.5083872 C10.999,11.0554875 10.5551352,11.499 9.999,11.499 L9.999,11.499 C9.44671525,11.499 8.999,11.0481 8.999,10.5083872 L8.999,6.49061284 Z M10,18 C14.418278,18 18,14.418278 18,10 C18,5.581722 14.418278,2 10,2 C5.581722,2 2,5.581722 2,10 C2,14.418278 5.581722,18 10,18 Z" id="CDS-Icon/#/ico_noti" fill="#F8626C"></path>
    </g>
</svg>