<?xml version="1.0" encoding="UTF-8"?>
<svg width="20px" height="20px" viewBox="0 0 20 20" version="1.1" xmlns="http://www.w3.org/2000/svg" xmlns:xlink="http://www.w3.org/1999/xlink">
    <!-- Generator: Sketch 59.1 (86144) - https://sketch.com -->
    <title>CDS-Icon/meeting/monitor@1x</title>
    <desc>Created with Sketch.</desc>
    <g id="CDS-Icon/meeting/monitor" stroke="none" stroke-width="1" fill="none" fill-rule="evenodd">
        <path d="M12.75,14.5 C13.1642136,14.5 13.5,14.8357864 13.5,15.25 C13.5,15.6642136 13.1642136,16 12.75,16 L7.25,16 C6.83578644,16 6.5,15.6642136 6.5,15.25 C6.5,14.8357864 6.83578644,14.5 7.25,14.5 L12.75,14.5 Z M14,4 C15.1045695,4 16,4.8954305 16,6 L16,12 C16,13.1045695 15.1045695,14 14,14 L6,14 C4.8954305,14 4,13.1045695 4,12 L4,6 C4,4.8954305 4.8954305,4 6,4 L14,4 Z M13.5,5.5 L6.5,5.5 C5.98716416,5.5 5.56449284,5.88604019 5.50672773,6.38337887 L5.5,6.5 L5.5,11.5 C5.5,12.0128358 5.88604019,12.4355072 6.38337887,12.4932723 L6.5,12.5 L13.5,12.5 C14.0128358,12.5 14.4355072,12.1139598 14.4932723,11.6166211 L14.5,11.5 L14.5,6.5 C14.5,5.94771525 14.0522847,5.5 13.5,5.5 Z" id="meeting_monitor" fill="#888888"></path>
    </g>
</svg>